<?xml version="1.0" encoding="utf-8"?>
<!-- Generator: Adobe Illustrator 22.0.1, SVG Export Plug-In . SVG Version: 6.00 Build 0)  -->
<svg version="1.1" id="Rounded_Rectangle_1930_copy_6_1_"
	 xmlns="http://www.w3.org/2000/svg" xmlns:xlink="http://www.w3.org/1999/xlink" x="0px" y="0px" width="572.8px" height="572.8px"
	 viewBox="0 0 572.8 572.8" enable-background="new 0 0 572.8 572.8" xml:space="preserve">
<g id="Rounded_Rectangle_1930_copy_6">
	<g>
		<path fill-rule="evenodd" clip-rule="evenodd" fill="#5C7386" d="M0,446.4h31.3v-31.8H0V446.4z M0,350.9h31.3V319H0V350.9z
			 M0,255.3h31.3v-31.9H0V255.3z M159.7,0h-31.8v31.3h31.8V0z M350.8,0h-31.9v31.3h31.9V0z M446.4,0h-31.8v31.3h31.8V0z M255.3,0
			h-31.9v31.3h31.9V0z M0,159.7h31.3v-31.9H0V159.7z M127.8,572.8h31.8v-31.3h-31.8V572.8z M414.5,572.8h31.8v-31.3h-31.8V572.8z
			 M572.8,159.7v-31.9h-30.4v-11c0-46.9-38-84.9-84.9-84.9H117.7c-46.9,0-84.9,38-84.9,84.9v338c0,46.9,38,84.9,84.9,84.9h339.8
			c46.9,0,84.9-38,84.9-84.9v-8.4h30.4v-31.8h-30.4v-63.7h30.4V319h-30.4v-63.7h30.4v-31.9h-30.4v-63.7H572.8z M294.8,391
			l-13.9-40.4h-86.3L180.8,391h-64.5l88.5-232.5h66L359.3,391H294.8z M438.8,391h-60.4V158.5h60.4V391z M210.6,304.6h54.3
			l-27.2-77.4L210.6,304.6z M223.3,572.8h31.9v-31.3h-31.9V572.8z M318.9,572.8h31.9v-31.3h-31.9V572.8z"/>
	</g>
</g>
</svg>
