<?xml version="1.0" encoding="utf-8"?>
<!-- Generator: Adobe Illustrator 21.1.0, SVG Export Plug-In . SVG Version: 6.00 Build 0)  -->
<svg version="1.1" id="Layer_1" xmlns="http://www.w3.org/2000/svg" xmlns:xlink="http://www.w3.org/1999/xlink" x="0px" y="0px"
	 width="2534.3px" height="2004.7px" viewBox="0 0 2534.3 2004.7" enable-background="new 0 0 2534.3 2004.7" xml:space="preserve">
<g id="Rounded_Rectangle_1_copy_8_2_">
	<g>
		<path fill-rule="evenodd" clip-rule="evenodd" fill="#EFEFEF" d="M0,1303.4c0,160,129.5,289.6,289.6,289.6h1955
			c160,0,289.8-129.6,289.8-289.6V724.2H0V1303.4z M2244.5,0h-1955C129.5,0,0,129.7,0,289.7v72.4h2534.3v-72.4
			C2534.3,129.7,2404.5,0,2244.5,0z"/>
	</g>
</g>
<g id="Rounded_Rectangle_2_copy_5_2_">
	<g>
		<path fill-rule="evenodd" clip-rule="evenodd" fill="#F5918B" d="M2172.2,869h-361.8c-40.1,0-72.6,32.4-72.6,72.4v144.8
			c0,40,32.4,72.4,72.6,72.4h361.8c40.1,0,72.3-32.4,72.3-72.4V941.4C2244.5,901.4,2212.3,869,2172.2,869z"/>
	</g>
</g>
<g id="Shape_31_copy_17_2_">
	<g>
		<polygon fill-rule="evenodd" clip-rule="evenodd" fill="#F5918B" points="1985.9,1233.3 1605.2,1614.1 1700.2,1709.4 
			1916.7,1492.9 1916.7,2004.7 2057.3,2004.7 2057.3,1495.1 2271.6,1709.4 2366.7,1614.1 		"/>
	</g>
</g>
</svg>
