<svg version="1.1" id="Layer_1" xmlns="http://www.w3.org/2000/svg" xmlns:xlink="http://www.w3.org/1999/xlink" x="0px" y="0px"
	 width="1736.2px" height="1736.2px" viewBox="0 0 1736.2 1736.2" enable-background="new 0 0 1736.2 1736.2" xml:space="preserve">
<g id="Ellipse_1_copy_50_2_">
	<g>
		<path fill-rule="evenodd" clip-rule="evenodd" d="M1619.8,434.1C1380.2,19,849.2-123.3,434.1,116.5
			C18.9,356.2-123.2,886.9,116.3,1302.1c239.8,415.2,770.6,557.4,1185.7,317.7C1717.3,1380.2,1859.3,849.3,1619.8,434.1z
			 M1228.2,1491.9c-344.5,198.8-785,80.9-983.8-263.7C45.5,883.7,163.6,443.3,508,244.4c344.5-199,784.9-81,983.9,263.6
			C1690.7,852.5,1572.8,1292.9,1228.2,1491.9z M1210.8,455l-315,315L582.5,456.7L479.4,559.8L792.7,873l-313.3,313.3l103.1,103.2
			l313.4-313.3l315,314.9l103.1-103.2L999,873l315-314.9L1210.8,455z"/>
	</g>
</g>
</svg>
