<svg version="1.1" id="Layer_1" xmlns="http://www.w3.org/2000/svg" xmlns:xlink="http://www.w3.org/1999/xlink" x="0px" y="0px"
	 width="2022.4px" height="1739.2px" viewBox="0 0 2022.4 1739.2" enable-background="new 0 0 2022.4 1739.2" xml:space="preserve">
<g id="Shape_2_copy_2_">
	<g>
		<polygon fill-rule="evenodd" clip-rule="evenodd" points="1910.6,186.9 2022.4,25.4 1918.8,50.7 1045.9,130.9 
			76.7,26.9 0,0 122.2,173.6 346.5,896.5 1045.6,1739.2 1744.8,896.5 1897.3,374.2 1446.6,422.4 1362.7,681.2 1148.9,939.2 
			1044.8,814.4 940.6,939.2 725.2,680.1 641,419.1 488.8,404.5 601.3,749.2 940.3,1157.4 1044.8,1032.1 1149.3,1157.4 1486.5,750.3 
			1550.4,553.5 1702.2,537.2 1620.4,828 1045.6,1520.8 470.8,828 272.6,188.9 1045.3,271.8 		"/>
	</g>
</g>
</svg>
