<?xml version="1.0" encoding="utf-8"?>
<!-- Generator: Adobe Illustrator 21.1.0, SVG Export Plug-In . SVG Version: 6.00 Build 0)  -->
<svg version="1.1" id="Layer_1" xmlns="http://www.w3.org/2000/svg" xmlns:xlink="http://www.w3.org/1999/xlink" x="0px" y="0px"
	 width="1488.1px" height="2362.1px" viewBox="0 0 1488.1 2362.1" enable-background="new 0 0 1488.1 2362.1" xml:space="preserve">
<g id="Rounded_Rectangle_1_2_">
	<g>
		<path fill-rule="evenodd" clip-rule="evenodd" fill="#232020" d="M1400.5,0H87.6C39.2,0,0,39.2,0,87.6v2186.9
			c0,48.4,39.2,87.6,87.6,87.6h1312.9c48.4,0,87.6-39.2,87.6-87.6V87.6C1488.1,39.2,1448.8,0,1400.5,0z M737.7,2273.5
			c-72.9,0-132.1-59.1-132.1-132.1c0-72.9,59.1-132.1,132.1-132.1c72.9,0,132.1,59.1,132.1,132.1
			C869.7,2214.4,810.6,2273.5,737.7,2273.5z M1265.6,1854.1c0,39.7-32.2,71.8-71.9,71.8H286.4c-39.7,0-71.9-32.2-71.9-71.8V288.6
			c0-39.7,32.2-71.8,71.9-71.8h907.4c39.7,0,71.9,32.2,71.9,71.8V1854.1z"/>
	</g>
</g>
</svg>
