<?xml version="1.0" encoding="utf-8"?>
<!-- Generator: Adobe Illustrator 21.1.0, SVG Export Plug-In . SVG Version: 6.00 Build 0)  -->
<svg version="1.1" id="Layer_1" xmlns="http://www.w3.org/2000/svg" xmlns:xlink="http://www.w3.org/1999/xlink" x="0px" y="0px"
	 width="1736.3px" height="1736.2px" viewBox="0 0 1736.3 1736.2" enable-background="new 0 0 1736.3 1736.2" xml:space="preserve">
<g id="Ellipse_1_copy_54_2_">
	<g>
		<path fill-rule="evenodd" clip-rule="evenodd" fill="#232020" d="M1620,434.1C1380.1,19,849.1-123.3,434.3,116.5
			C19.1,356.1-123.4,887,116.5,1302.1c239.5,415.2,770.6,557.4,1185.5,317.7C1717.3,1380.2,1859.5,849.3,1620,434.1z M1228.3,1491.9
			c-344.4,198.9-785.1,80.9-983.8-263.6C45.4,883.8,163.6,443.3,508.1,244.4c344.4-198.9,785-80.9,984,263.6
			C1690.9,852.5,1572.8,1292.9,1228.3,1491.9z M613.5,562.3l306.2,306.2l-306.2,306.2l102,102.1l408.4-408.2L715.5,460.2
			L613.5,562.3z"/>
	</g>
</g>
</svg>
