<?xml version="1.0" encoding="utf-8"?>
<!-- Generator: Adobe Illustrator 21.1.0, SVG Export Plug-In . SVG Version: 6.00 Build 0)  -->
<svg version="1.1" id="Layer_1" xmlns="http://www.w3.org/2000/svg" xmlns:xlink="http://www.w3.org/1999/xlink" x="0px" y="0px"
	 width="2410.9px" height="2407.4px" viewBox="0 0 2410.9 2407.4" enable-background="new 0 0 2410.9 2407.4" xml:space="preserve">
<g id="Forma_1_2_">
	<g>
		<path fill-rule="evenodd" clip-rule="evenodd" d="M2277,1684.1c-174.1,0-334.9-26.8-482.2-80.3c-40.2-26.8-93.8-13.4-134,26.8
			l-294.7,294.7c-375-200.9-696.4-509-884-884.1l308.1-294.6c26.8-40.2,40.2-93.8,26.8-134c-53.6-160.8-80.4-317.9-80.4-478.7
			c0-80.3-53.6-134-133.9-134H134C53.5,0,0,53.6,0,134C0,1393,1018,2407.4,2277,2407.4c80.3,0,133.9-53.6,133.9-133.9v-455.4
			C2410.9,1737.7,2357.4,1684.1,2277,1684.1z"/>
	</g>
</g>
</svg>
