<?xml version="1.0" encoding="utf-8"?>
<!-- Generator: Adobe Illustrator 21.1.0, SVG Export Plug-In . SVG Version: 6.00 Build 0)  -->
<svg version="1.1" id="Layer_1" xmlns="http://www.w3.org/2000/svg" xmlns:xlink="http://www.w3.org/1999/xlink" x="0px" y="0px"
	 width="1736.3px" height="1736.2px" viewBox="0 0 1736.3 1736.2" enable-background="new 0 0 1736.3 1736.2" xml:space="preserve">
<g id="Ellipse_1_copy_33_2_">
	<g>
		<path fill-rule="evenodd" clip-rule="evenodd" fill="#232020" d="M1192.3,687.7l77.9-77.8l-150.4-150.2l-77.5,77.6
			c-23.6-13-48.1-24.9-74.7-32.6V396.6H755.3v108.4c-26,7.8-50.3,19.6-73.7,32.4l-77.7-77.7L453.7,609.8l78,78
			c-12.8,23.4-24.4,47.6-32,73.7H391.3v212.4h109.2c7.8,25.8,19.4,49.8,32.2,72.9l-78.3,78.5l150.1,150.2l79.5-79.5
			c22.9,12.3,46.2,23.9,71.3,31.3v110.5h212.4v-110.3c25.7-7.5,49.5-19,72.5-31.5l79.2,79.3l150.2-150.3l-78.3-78.2
			c12.8-23.2,24.5-47.1,32.4-73h108.9V761.5h-108.2C1216.7,735.4,1205.1,711.2,1192.3,687.7z M861.6,1114.2
			c-136.9,0-247.8-110.9-247.8-247.9c0-136.9,110.8-247.8,247.8-247.8c136.7,0,247.8,110.9,247.8,247.8
			C1109.4,1003.2,998.3,1114.2,861.6,1114.2z M1620,434.1C1380.3,19,849.3-123.3,434.4,116.5C19.1,356.1-123.4,887,116.5,1302.1
			c239.7,415.2,770.5,557.4,1185.7,317.7S1859.4,849.2,1620,434.1z M1228.3,1491.9c-344.5,198.8-784.9,80.8-983.9-263.7
			C45.5,883.8,163.7,443.3,508.2,244.3c344.4-198.9,784.8-80.9,983.7,263.6C1691,852.5,1572.7,1292.9,1228.3,1491.9z"/>
	</g>
</g>
</svg>
