<svg version="1.1" id="Layer_1" xmlns="http://www.w3.org/2000/svg" xmlns:xlink="http://www.w3.org/1999/xlink" x="0px" y="0px"
	 width="4166.6px" height="1328.3px" viewBox="0 0 4166.6 1328.3" enable-background="new 0 0 4166.6 1328.3" xml:space="preserve">
<g id="Shape_2_2_">
	<g>
		<path fill-rule="evenodd" clip-rule="evenodd" d="M2274.8,1000.2l-72.6-196.4h-57.4l26.7,72.3v0l103.2,273.9
			l132-346.2h-59.4L2274.8,1000.2z M2559.5,1136.6h55.1V803.8h-55.1V1136.6z M798.8,100L58.6,20.5L0,0l93.3,132.6l171.3,552.1
			l533.9,643.6l534-643.6l116.5-398.9l-344.2,36.8l-64.1,197.7L877.5,717.3L798,622l-79.5,95.3L553.8,519.4l-64.3-199.4l-116.3-11.1
			l86,263.3L718.1,884l79.8-95.7l79.8,95.7L1135.3,573l48.8-150.3l115.9-12.4l-62.4,222.1l-439,529.1l-439-529.1L208.2,144.3
			l590.2,63.3l660.9-64.9l85.4-123.3l-79.1,19.3L798.8,100z M3736.3,901.2c0-96.8-110.1-96.8-110.1-96.8h-109.6v332.3h55V998.1h44.7
			l63,138.6h60.7l-67.3-147.1C3702.4,978.6,3736.3,954.9,3736.3,901.2z M3626.2,943h-54.6v-83.1h54.6c0,0,55,0,55,41.3
			C3681.3,943,3626.2,943,3626.2,943z M2068.3,1000.2l-72.1-196.4h-59.4l131.5,346.2l74.8-198.4l-28.7-76.1L2068.3,1000.2z
			 M2101.8,592.1c91.1,0,165-74.5,165-166.4c0-7.8-0.7-15.3-1.7-22.8h-116.8l-49.1,53.9h108c-13.4,46-55.5,79.8-105.4,79.8
			c-60.6,0-109.8-49.7-109.8-110.8s49.3-110.8,109.8-110.8c29.2,0,55.7,11.6,75.4,30.4l37.4-40.8c-29.5-28-69.1-45.2-112.8-45.2
			c-91.1,0-165,74.5-165,166.4S2010.6,592.1,2101.8,592.1z M3103.1,1136.6h59.4l14.1-38.5h116l14.6,38.5h59.4l-132-342.4
			L3103.1,1136.6z M3194.6,1050.1l40.1-115.6l40.1,115.6H3194.6z M3320.4,378.1L3236,259.2h-67.4l124,175.5v157.4h55.2V434.7
			l124-175.5h-67.4L3320.4,378.1z M2640.8,356.6c0-96.8-110.1-96.8-110.1-96.8h-109.6v332.3h55V453.5h44.7l63,138.6h60.7
			l-67.3-147.1C2607,434,2640.8,410.3,2640.8,356.6z M2530.7,398.4h-54.6v-83.1h54.6c0,0,55,0,55,41.3
			C2585.8,398.4,2530.7,398.4,2530.7,398.4z M3973.8,803.8h-55.2v332.9h55.2c82,0,192.8-24.3,192.8-166.4
			C4166.6,822.3,4054,803.8,3973.8,803.8z M3973.8,1082.4V858c0,0,137.2-20.9,137.2,112.3C4111,1101.4,3973.8,1082.4,3973.8,1082.4z
			 M2815.5,592.1h220.2v-55.6h-165v-83.2h137.2V398h-137.2v-83.2h165v-55.7h-220.2V592.1z M2973,803.8h-191.8v55.7h110.8
			l-110.3,277.2h191.9V1081h-110.3L2973,803.8z"/>
	</g>
</g>
</svg>
