<svg version="1.1" id="Layer_1" xmlns="http://www.w3.org/2000/svg" xmlns:xlink="http://www.w3.org/1999/xlink" x="0px" y="0px"
	 width="2232.9px" height="2407.4px" viewBox="0 0 2232.9 2407.4" enable-background="new 0 0 2232.9 2407.4" xml:space="preserve">
<g id="USER_copy_3_2_">
	<g>
		<path fill-rule="evenodd" clip-rule="evenodd" d="M2214.1,2185.8c-23.3-220.3-129.2-388.9-317.7-505.8
			c-188.6-116.9-448.5-175.3-779.9-175.3c-331.4,0-591.4,58.7-779.9,176C148,1798,42.1,1966.8,18.8,2187.1L0,2407.4h215l18.8-200.2
			c8.1-77.9,32-146.4,71.9-205.5c39.8-59.1,88.4-106.3,145.8-141.7c57.3-35.4,124.7-64.3,202.2-86.7
			c77.5-22.4,153.2-37.6,227.1-45.7c73.9-8.1,152.5-12.1,235.8-12.1s161.9,4,235.8,12.1c73.9,8.1,149.6,23.3,227.1,45.7
			c77.5,22.4,144.9,51.1,202.2,86c57.3,34.9,105.9,82.2,145.8,141.7c39.8,59.6,63.8,127.9,71.9,204.9l18.8,201.5h215L2214.1,2185.8z
			 M1116.5,1332.7c171.1,0,314.1-69.2,429.3-207.6c115.1-138.4,172.6-310.5,172.6-516.5c0-107.5-27.3-208.2-82-302.3
			c-54.6-94-128.3-168.6-221-223.7C1322.7,27.5,1223,0,1116.5,0c-106.6,0-206.2,27.5-298.9,82.6c-92.7,55.1-166.4,129.6-221,223.7
			c-54.6,94-82,194.8-82,302.3c0,206,57.5,378.2,172.6,516.5C802.3,1263.5,945.4,1332.7,1116.5,1332.7z M842.4,328.5
			c78.8-80.1,170.2-120.2,274.1-120.2c103.9,0,195.2,40.1,274.1,120.2c78.8,80.2,118.2,173.5,118.2,280.1
			c0,146.9-37.4,269.6-112.2,368.1c-74.8,98.5-168.2,147.8-280.1,147.8c-112,0-205.3-49.3-280.1-147.8
			c-74.8-98.5-112.2-221.2-112.2-368.1C724.2,502,763.6,408.6,842.4,328.5z"/>
	</g>
</g>
</svg>
